Patient4_TMGait_0pt2_03_right_14_EMG.mot
version=1
nRows=33
nColumns=33
inDegrees=no
endheader
time	1LAddLong	2LGlutMax	3LGlutMed	4LIliopsoas	5LSemiMemb	6LBicFemLong	7LRecFem	8LVastMed	9LVastLat	10LGasMed	11LTibAnt	12lTibPost	13LPeroneusLong	14LSol	15LExtDigLong	16LFlexDigLong	17RAddLong	18RGlutMax	19RGlutMed	20RIliopsoas	21RSemiMemb	22RBicFemLong	23RRecFem	24RVastMed	25RVastLat	26RGasMed	27RTibAnt	28RTibPost	29RPeroneusLong	30RSol	31RExtDigLong	32RFlexDigLong
31.525	0.007477	0.036011	0.044556	0.00061	-0.028992	-0.009766	-0.005646	0.003967	0.26108	-0.031891	0.000916	0.007019	0.010834	-0.032501	-0.002136	0.010071	0.013733	0.063782	0.058136	-0.02182	0.009766	-0.023346	-0.029907	-0.15762	-0.16571	-0.017548	0.07309	-0.001068	-0.32257	-0.04715	-0.003357	-0.00946
31.526	0.008545	-0.014191	0.13016	0.002594	0.000153	-0.024567	0.09964	0.001831	0.29846	0.016022	0.004578	0.030212	0.018616	-0.012665	0.000305	0.011444	0.002289	0.025787	0.12207	-0.011444	-0.025177	0.016022	-0.21927	-0.095673	-0.20233	-0.016174	0.077057	-0.003357	-0.13412	-0.04364	-0.000305	0.00061
31.527	0.005951	0.004883	0.14023	0.011292	-0.076904	-0.00351	0.15045	0	0.094604	0.054016	0.002899	0.006104	0.011597	-0.024261	0.003967	0.006104	0.015869	0.075226	0.2095	-0.007172	0.058136	0.021515	-0.20416	-0.11154	-0.16357	-0.021057	0.071411	-0.000153	-0.11917	-0.045471	-0.006714	0.001678
31.528	-0.001526	0.020447	0.05249	0.00473	-0.038452	0.028229	0.14999	0.012512	-0.16663	0.037384	-0.000916	-0.007324	0.028229	-0.023651	0.004272	0.012665	0.011902	0.029297	0.15762	-0.024719	0.15823	0.031281	-0.10941	-0.20905	-0.09201	-0.010681	0.04303	-0.006561	-0.034943	-0.040436	0.000305	-0.010071
31.529	-0.007019	0.018921	-0.004578	0.007019	0.008698	0.021362	0.10086	0.007782	-0.29923	-0.094299	0.00412	-0.015564	0.019531	-0.020142	0.010681	0.009308	-0.016327	0.009918	0.13123	-0.00946	-0.026245	0.10986	-0.082245	-0.16556	-0.044556	-0.00412	0.011139	0.001526	-0.3833	-0.052185	-0.003967	-0.004425
31.53	-0.00885	0.051727	-0.042572	-0.000305	0.006866	-0.001221	0.1239	0.009918	-0.17425	-0.13367	0.006256	-0.019684	0.030975	-0.01709	0.006409	0.014343	-0.022736	0.019989	-0.22339	0.008087	-0.19531	0.083771	0.003357	-0.094757	-0.040588	-0.000458	-0.021057	-0.001526	-0.42801	-0.06546	0.000458	-0.012054
31.531	-0.007172	0.059357	-0.012665	-0.015106	-0.027161	-0.042725	0.15259	0.000305	-0.092773	-0.063171	0.009155	-0.014648	0.009918	-0.025635	0.005646	0.01297	0.010986	0.095062	-0.22415	0.005798	-0.062714	0.05249	0.062256	-0.16342	-0.04837	0.002594	0.002594	0.000763	-0.13382	-0.076904	-0.000458	-0.000153
31.532	0.012665	0.047913	0.023041	0.012207	0.022736	-0.11383	0.15366	-0.014496	-0.049744	0.007324	0.006561	-0.016022	0.00412	-0.014343	0.006104	0.007629	0.032654	0.053558	-0.20828	-0.002441	-0.027466	0.050049	0.080566	-0.13534	-0.004425	-0.000763	0.06424	-0.001221	-0.62317	-0.080261	-0.003967	-0.01358
31.533	0.018311	0.02533	0.04303	0.00946	0.070801	-0.078735	0.12116	-0.009918	-0.040894	0.007782	0.00824	-0.016937	0.006104	-0.021515	0.008392	0.006409	0.014648	-0.032043	-0.27695	-0.009613	0.093231	0.063782	0.14725	-0.035858	0.037994	-0.006104	0.11658	-0.00412	-0.24246	-0.053711	-0.002289	-0.020142
31.534	0.012054	0.040741	0.11566	0.005493	0.013123	0.015564	0.059967	-0.005035	-0.033264	-0.023956	0.005951	-0.015869	0.003204	-0.015564	0.007782	0.029602	0.018616	0.063477	-0.61539	0.037384	0.2121	-0.021057	0.11475	0.19928	0.045471	-0.006561	0.089111	-0.005646	0.78293	-0.030975	-0.006256	-0.01709
31.535	0.010223	0.045319	0.055542	0.005188	-0.050964	0.073853	0.079651	-0.002747	0.003052	0.084991	0.013123	-0.015869	-0.016937	-0.021515	0.004578	0.032196	0.017242	0.044556	-0.31097	-0.018158	0.16159	-0.04837	0.061646	0.23499	-0.001373	-0.003662	-0.065613	-0.003662	0.99823	-0.035248	-0.002136	-0.018616
31.536	0.004578	0.045471	-0.045624	0.002899	-0.066528	0.068817	0.072479	0.008392	-0.012512	0.20767	0.00351	-0.018005	0.002747	-0.028076	0.016785	0.029297	0.047913	0.021057	-0.043488	-0.10239	0.056305	-0.070038	0.10101	0.12238	-0.084991	0.000763	-0.13077	-0.006866	-0.42145	-0.091858	-0.006409	-0.016174
31.537	-0.002441	0.060883	-0.099182	0.019531	-0.005951	0.063477	0.089874	0.006256	-0.003967	-0.01236	0.005341	-0.019226	-0.002441	-0.013733	0.01236	0.005951	0.031586	-0.046082	0.37842	-0.084991	-0.1474	0.019531	0.03891	0.072174	-0.17838	0.001221	0.00412	-0.00412	-0.34164	-0.052795	-0.003052	-0.017548
31.538	0.001984	0.058136	-0.075684	0.00412	0.093384	0.007172	0.096436	-0.006561	0.031891	-0.079651	0.005188	-0.018768	-0.005341	0.007019	0.006104	0.015106	-0.008698	-0.08316	0.65338	-0.03891	-0.32562	0.15976	-0.046234	0.14328	-0.24658	-0.000305	0.19241	0.000305	-0.070648	-0.073395	-0.003662	-0.027466
31.539	-0.000305	0.065613	0.12192	0.012665	0.075378	0.015564	0.16098	-0.003815	-0.027618	-0.048218	0.00412	-0.013428	-0.005493	0.007935	0.007019	0.007782	-0.039978	-0.15915	-0.14389	0.087433	-0.1059	0.078888	-0.030823	0.16159	-0.29266	-0.004578	0.34225	-0.001831	-0.12863	-0.030518	0	-0.022888
31.54	-0.003815	0.029755	0.073853	0.009613	-0.016479	0.041809	0.12299	0.005493	0.017853	-0.018921	0.002747	-0.007935	-0.006866	0.019226	0.002441	0.037079	-0.018768	-0.13229	-0.34302	0.12482	0.02655	0.034027	-0.23499	0.10117	-0.28793	0.000763	0.18387	-0.000763	-0.34012	-0.064087	-0.004272	-0.014954
31.541	-0.009003	0.030823	0.050507	0.002594	-0.06546	0.045929	0.12177	0.019684	0.053101	-0.004578	0.000153	-0.015717	0.018768	0.004272	-0.000458	0.032806	-0.022278	-0.029144	-0.30426	0.18555	0.15015	-0.068817	-0.48019	0.005493	-0.059052	-0.000763	-0.11444	-0.003052	-0.2832	-0.067902	-0.001526	-0.011902
31.542	-0.004578	-0.016937	0.007477	0.003662	-0.066833	0.006104	0.06546	0.020905	0.003204	0.004425	-0.003204	-0.015564	0.02243	0.029297	0.003815	0.028381	-0.00946	-0.003204	-0.052643	0.11276	0.054779	-0.056152	-0.6604	-0.016174	0.20218	0.003967	-0.19363	-0.002136	0.098877	-0.041656	-0.00412	-0.009308
31.543	0.000153	-0.035858	-0.05127	0.000458	-0.021667	-0.068817	-0.015259	0.022583	-0.048676	-0.001678	0.006104	-0.012054	0.012512	0.016327	-0.007172	0.019226	-0.007782	-0.00946	-0.7576	0.066071	0.007629	-0.059357	-0.59189	0.055695	0.18951	0.003967	0.029907	-0.003357	0.44647	-0.050507	-0.00351	-0.008392
31.544	-0.007782	-0.002747	-0.044403	0.011749	0.014801	-0.061646	0.087128	0.011597	-0.084991	-0.033722	-0.00473	-0.005341	0.001984	0.021515	-0.001831	0.007629	-0.001831	0.00351	-0.54489	0.046844	-0.011597	-0.037384	-0.16693	0.024261	0.33142	0.002289	0.054016	-0.002747	0.11322	-0.045166	-0.006409	-0.017548
31.545	-0.027466	0.022888	0.011749	0.01709	0.021362	0.001526	0.061493	0.009766	-0.015411	-0.016479	0.010376	-0.001678	-0.008698	0.019836	0.00061	0.002747	0.016022	0.017548	0.47485	-0.011902	-0.025787	-0.055847	0.16068	-0.03067	0.38284	-0.00061	-0.033875	-0.001678	0.063629	-0.014801	-0.002899	-0.014038
31.546	-0.034943	0.024261	0.032654	0.009918	0.000916	-0.015259	0.005798	0.004578	0.026245	-0.006104	0.001373	0.002594	-0.02655	0.019836	0.004425	0.012512	0.027771	-0.013428	0.77759	0.02121	-0.010071	-0.031128	0.14694	0.034027	0.2002	-0.000916	-0.010223	-0.008087	0.12512	-0.04837	-0.000763	-0.007782
31.547	-0.026398	-0.02243	0.043335	-0.005188	-0.009918	-0.018768	0.08316	-0.002899	0.045013	-0.00412	-0.002289	0.011749	-0.015869	0.027924	0.002136	0.00061	0.015106	-0.011749	0.51819	0.01709	0.001068	0.014191	0.037079	0.039368	0.048828	-0.000458	0.009766	-0.002441	0.21606	-0.11276	-0.001831	-0.018463
31.548	-0.010376	0.028839	0.000458	0.005646	-0.033569	-0.090332	0.11643	-0.007324	0.041046	0.035706	0.012817	0.017395	-0.005798	0.029755	0.00824	0.001068	-0.004272	0.002594	0.023956	0.036621	0.014954	0.022583	0.2478	0.15533	0.06012	0.002594	0.01236	-0.002899	-0.030823	-0.092163	-0.001068	-0.012207
31.549	0.003204	0.025635	-0.10178	-0.001678	0.028687	-0.1088	0.07843	-0.014191	0.025635	0.025482	0.004425	0.027161	0.015717	0.027313	0.007782	0.010071	0.008392	-0.02594	0.06012	0.067749	0.006409	0.011749	0.46097	0.1033	-0.028381	0.000305	0.024719	-0.000305	-0.17456	-0.079193	0	-0.028229
31.55	0.00824	0.046082	-0.22507	0.005798	0.081482	-0.085449	0.069122	-0.004883	-0.004272	-0.009308	-0.002289	0.027161	0.039673	0.015869	0.014648	0.009766	0.00824	0.012817	0.14389	0.008698	0.015259	0.027924	0.52139	0.085449	-0.11612	-0.001678	-0.049133	-0.004425	-0.36087	-0.049744	-0.00473	-0.017242
31.551	0.018005	0.065765	-0.22583	0.00061	0.092773	-0.041656	0.094147	-0.007324	0.016937	0.004578	0.003967	0.024109	0.025635	0.019073	0.007172	0.003662	0.005798	0.045319	0.42938	-0.030365	0.005188	0.010376	0.45593	-0.1326	-0.17517	-0.007019	-0.047607	-0.001984	-0.32883	-0.003052	-0.001678	-0.019073
31.552	0.02121	0.081482	-0.083618	0.015411	0.07843	-0.006561	0.063171	-0.008087	0.15854	-0.003357	0.003357	0.021973	0.02121	0.024109	-0.000153	0.013123	-0.007477	0.071411	0.96954	-0.083313	0.018616	0.043488	0.27618	-0.21774	-0.12054	-0.009308	0.014038	-0.000153	-0.006104	-0.039673	-0.00412	-0.027161
31.553	0.02533	0.050507	0.077515	0.006866	0.021667	0.022736	0.016327	-0.006561	0.15961	0.002747	0.005188	0.014954	0.021362	0.038452	0.002136	0.023499	-0.007782	0.047913	0.86929	-0.064697	0.015259	0.042419	0.052032	-0.17166	-0.18234	-0.009308	0.22003	0.001831	0.072174	-0.028381	-0.006714	-0.010529
31.554	0.021362	0.04425	0.18967	0.002289	0.016785	0.048676	-0.029449	0.010681	0.19501	0.009308	0.002441	0.018005	0.020599	0.015106	0.002747	0.014954	-0.000153	0.040131	0.3331	-0.046387	0.013733	-0.006104	-0.050049	-0.21393	-0.21118	-0.010834	0.40802	0.000763	0.12451	-0.047607	-0.003052	-0.02594
31.555	0.005798	0.013123	0.14694	-0.005951	0.015564	0.035095	0.000458	0.00824	0.25009	0.022888	0.000305	0.015411	0.024109	0.008087	0.005188	0.014343	0.018768	0.037689	-0.23392	-0.097046	0.001373	-0.009308	-0.43869	-0.27145	-0.098724	-0.006104	0.61249	-0.00351	0.072021	-0.061646	-0.001526	-0.019226
31.556	-0.002594	0.024872	0.10223	0.000916	-0.008545	0.008545	-0.019989	0.005951	0.30167	0.019531	-0.005341	0.015564	0.000916	0.018921	0.011444	0.021057	0.009613	0.056305	-0.46692	-0.10696	0.00946	0.016327	-0.90744	0.012665	0.024109	0.002441	0.47424	0.000153	0.11093	-0.15503	-0.004883	-0.014038
31.557	-0.014038	0.037842	0.01297	0.006256	0.006409	-0.044098	-0.012512	0.005493	0.31616	0.019226	-0.007019	0.013733	-0.00824	0.016632	0.012207	0.014801	-0.005798	0.093079	-0.41763	-0.11643	0.010681	0.023041	-1.1374	0.38727	0.21408	0.006409	-0.27069	0.000305	0.22507	-0.2829	-0.000916	-0.010529
